<svg width="79" height="83" fill="none" xmlns="http://www.w3.org/2000/svg"><path fill-rule="evenodd" clip-rule="evenodd" d="m33.14.8.16-.03v81.19l-.16-.02-.1-.02-.12-.03-.39-.08-.13-.03-.34-.08-.3-.07-.12-.03-.13-.03-.25-.06-.13-.04-.48-.12-.26-.07-.62-.18-.14-.04-.13-.04-.5-.15-.12-.04-.12-.04-.12-.04-.58-.19-.2-.07-.7-.25-.11-.04-.73-.28-.03-.01h-.02l-.77-.32-.03-.01-.04-.02-.06-.02A41.42 41.42 0 0 1 0 41.37 41.42 41.42 0 0 1 25.37 3.2l.06-.02.04-.02h.02l.01-.01.77-.31.02-.01.03-.01c.24-.1.48-.2.73-.28l.11-.04.7-.25.2-.07.58-.2.12-.03.12-.04.13-.04.5-.15.12-.04.14-.04.62-.18.26-.07.48-.12.13-.04.25-.06.13-.03.13-.03.3-.07.33-.08.13-.03.39-.08.13-.03.1-.02Zm17.33 28.67-7.3 9.4V25.2c-.03-8.4-.03-16.8-.03-25.21a41.31 41.31 0 0 1 23.6 8.53L50.47 29.47Zm5.43 32.4.02-.02 9.66 13.22a41.3 41.3 0 0 1-22.44 7.67V55.77s.05 0 0 0v-11.4l7 9.63 5.76 7.86Z" fill="#3C324C"/><path fill-rule="evenodd" clip-rule="evenodd" d="m50.3 29.7-7.13 9.17v-11.7c2.63.2 5.07 1.1 7.13 2.52Zm6.26 10.78a14.83 14.83 0 0 1-.05 2.89l-1.11-1.43 1.16-1.46Zm-6.52 13.37a14.44 14.44 0 0 1-6.9 2.34V44.38l6.9 9.47Zm-17.37-1.01a14.51 14.51 0 0 1 .34-22.59l.14.2v21.77l-.48.62Z" fill="#ED2E38"/><path fill-rule="evenodd" clip-rule="evenodd" d="M70.82 63.51 53.74 41.48 71.2 19.8a35.71 35.71 0 0 1 7.23 21.6c0 8.34-2.84 16.02-7.62 22.11ZM33.3 30.03v23.3a14.53 14.53 0 0 1 0-23.3Z" fill="#ED2E38"/><path fill-rule="evenodd" clip-rule="evenodd" d="m33.14.8.16-.03v81.19l-.16-.02-.1-.02-.12-.03-.39-.08-.13-.03-.34-.08-.3-.07-.12-.03-.13-.03-.25-.06-.13-.04-.48-.12-.26-.07-.62-.18-.14-.04-.13-.04-.5-.15-.12-.04-.12-.04-.12-.04-.58-.19-.2-.07-.7-.25-.11-.04-.73-.28-.03-.01h-.02l-.77-.32-.03-.01-.04-.02-.06-.02A41.42 41.42 0 0 1 0 41.37 41.42 41.42 0 0 1 25.37 3.2l.06-.02.04-.02h.02l.01-.01.77-.31.02-.01.03-.01c.24-.1.48-.2.73-.28l.11-.04.7-.25.2-.07.58-.2.12-.03.12-.04.13-.04.5-.15.12-.04.14-.04.62-.18.26-.07.48-.12.13-.04.25-.06.13-.03.13-.03.3-.07.33-.08.13-.03.39-.08.13-.03.1-.02Zm17.33 28.67-7.3 9.4V25.2c-.03-8.4-.03-16.8-.03-25.21a41.31 41.31 0 0 1 23.6 8.53L50.47 29.47Zm5.43 32.4.02-.02 9.66 13.22a41.3 41.3 0 0 1-22.44 7.67V55.77s.05 0 0 0v-11.4l7 9.63 5.76 7.86Z" fill="#3C324C"/><path fill-rule="evenodd" clip-rule="evenodd" d="M70.82 63.51 53.74 41.48 71.2 19.8a35.71 35.71 0 0 1 7.23 21.6c0 8.34-2.84 16.02-7.62 22.11Z" fill="#ED2E38"/><path fill-rule="evenodd" clip-rule="evenodd" d="m50.3 29.7-7.13 9.17v-11.7c2.63.2 5.07 1.1 7.13 2.52Zm6.26 10.78a14.78 14.78 0 0 1-.05 2.89l-1.11-1.43 1.16-1.46Zm-6.52 13.37a14.44 14.44 0 0 1-6.9 2.34V44.38l6.9 9.47Zm-17.37-1.01a14.51 14.51 0 0 1 .34-22.59l.14.2v21.77l-.48.62Z" fill="#ED2E38"/></svg>