<svg width="1280" height="540" fill="none" xmlns="http://www.w3.org/2000/svg"><g opacity=".8" fill-rule="evenodd" clip-rule="evenodd" fill="#1A1A1A"><path d="m1240-665 4 2L320 936l-2-3-2-1-2-2-7-6-2-2-6-6-5-5-2-2-2-2-5-4-2-2-8-8-4-4-10-11-3-2-2-2-8-9-2-2-2-2-2-3-9-10-3-3-11-13-2-2-11-14v-1h-1l-11-15-1-1-1-1C-405 468-254 70-59-268c195-339 754-484 1119-438l1 1h2l19 2 1 1 17 2 3 1 17 3 4 1 14 3h3l3 1h3l11 3 3 1 3 1 14 3 6 2 11 3h3l6 2 3 1 3 1 6 2 8 2 3 1 8 3 3 1h2Zm15 762-250 102 155-269 286-497a939 939 0 0 1 368 437L1255 97ZM994 797l41 370a940 940 0 0 1-530-104l307-532s1 1 0 0l129-224 29 269 24 221ZM1269 999l-86-629 591-228a812 812 0 0 1-505 857Z"/></g></svg>