<svg width="682" height="419" fill="none" xmlns="http://www.w3.org/2000/svg"><g opacity=".1" fill-rule="evenodd" clip-rule="evenodd" fill="#8775A4"><path d="m839-456 3 1L112 809l-2-2-1-1-2-2-5-5-2-1-5-4-4-4-1-2-2-1-3-4-2-1-6-7-4-3-8-8-2-2-1-2-7-7-1-2-2-1-1-2-8-8-2-3-9-10-1-2-9-11-1-1-9-11v-1h-1v-1c-472-261-353-576-198-843 154-267 595-382 883-345h3l14 2h2l13 2 3 1 13 2 3 1 11 2h2l3 1h2l9 3h2l3 1 11 3 5 1 8 2 3 1 4 1 2 1h3l5 2 6 2 2 1 7 2h2l2 1Zm12 602-198 81L776 14h-1l226-393a742 742 0 0 1 291 345L851 146ZM644 699h1l31 293a742 742 0 0 1-418-83l243-420s0 1 0 0l102-177 23 213 18 174ZM862 859l-68-497 466-180a642 642 0 0 1-398 677Z"/></g></svg>