<svg width="190" height="32" fill="none" xmlns="http://www.w3.org/2000/svg"><path d="M37.63 18.89v-8.76l6.73 8.76h3.21l-7.01-8.85 6.43-7.9h-3.12l-6.24 7.95V2.14H35.1v16.75h2.53ZM60.6 9.33c0-2.37-.33-4.23-1.62-5.55A6.1 6.1 0 0 0 54.6 2c-1.72 0-3.24.64-4.4 1.8-1.4 1.4-1.6 3.2-1.6 5.94v1.11c0 2.5.01 4.78 1.6 6.4a5.95 5.95 0 0 0 4.4 1.79c1.75 0 3.25-.61 4.4-1.8 1.6-1.64 1.62-3.73 1.62-6.48V9.33Zm-2.55 1.02c0 2.84 0 4.32-.99 5.36a3.3 3.3 0 0 1-2.49 1.04c-.96 0-1.8-.36-2.48-1.04-.9-.9-.96-2.47-.96-4.19V10.1c0-2.14.02-3.8.96-4.78a3.41 3.41 0 0 1 2.48-1.03c.97 0 1.83.35 2.49 1.03.94.99.99 2.5.99 5.04Zm18.62 8.54V2.14h-2.33L66.9 14.27V2.14h-2.54v16.75h2.3l7.48-12.17V18.9h2.54Zm16.2 0V2.14h-2.55V9.3h-6.76V2.14h-2.53v16.75h2.53v-7.32h6.76v7.32h2.55Zm15.76-9.56c0-2.37-.33-4.23-1.61-5.55A6.1 6.1 0 0 0 102.62 2c-1.72 0-3.24.64-4.39 1.8-1.4 1.4-1.62 3.2-1.62 5.94v1.11c0 2.5.03 4.78 1.62 6.4a5.95 5.95 0 0 0 4.39 1.79c1.75 0 3.25-.61 4.4-1.8 1.6-1.64 1.62-3.73 1.62-6.48V9.33Zm-2.55 1.02c0 2.84 0 4.32-.99 5.36a3.3 3.3 0 0 1-2.48 1.04c-.97 0-1.81-.36-2.49-1.04-.9-.9-.96-2.47-.96-4.19V10.1c0-2.14.02-3.8.96-4.78a3.41 3.41 0 0 1 2.49-1.03c.96 0 1.82.35 2.48 1.03.94.99.99 2.5.99 5.04Zm16.08-5.93V2.14h-11.72v2.28h4.6v14.47h2.53V4.42h4.6Zm15.2 14.47V2.14h-2.32l-7.46 12.13V2.14h-2.53v16.75h2.3l7.48-12.17V18.9h2.53Zm21.84 0V2.14h-2.56V9.3h-6.75V2.14h-2.54v16.75h2.54v-7.32h6.75v7.32h2.56Zm16.6 0-6.1-16.75h-2.04l-6.12 16.75h2.68l1.17-3.37h6.59l1.17 3.37h2.65Zm-4.5-5.53h-5.19l2.63-7.44 2.56 7.44Zm18.69.82c0-1.9-.87-3.1-2.51-3.88a3.8 3.8 0 0 0 2.25-3.65c0-2.73-2-4.51-5.04-4.51h-6.5v16.75h6.76c3.12 0 5.04-1.82 5.04-4.7Zm-2.8-7.36c0 1.5-1.02 2.4-2.71 2.4h-3.75v-4.8h3.75c1.69 0 2.72.9 2.72 2.4Zm.24 7.22c0 1.58-1.05 2.56-2.74 2.56h-3.96v-5.1h3.96c1.69 0 2.74.99 2.74 2.54ZM47.06 25.3h.66v2.74h3.32v-2.73h.65v6.53h-.65v-3.16h-3.32v3.16h-.66V25.3Zm9.31-.16a3.37 3.37 0 0 1 3.47 3.43c0 .95-.33 1.77-1 2.43a3.3 3.3 0 0 1-2.42 1c-.96 0-1.77-.33-2.44-1a3.5 3.5 0 0 1 .7-5.4c.52-.3 1.08-.46 1.7-.46Zm.03.64c-.48 0-.94.12-1.37.38a2.73 2.73 0 0 0-1.37 2.44c0 .77.26 1.43.8 1.96.54.54 1.18.8 1.94.8A2.77 2.77 0 0 0 58.8 30c.25-.43.37-.9.37-1.42a2.7 2.7 0 0 0-1.38-2.41c-.43-.26-.9-.38-1.39-.38Zm4.77-.47h1.28c.52 0 .91.06 1.19.18a1.54 1.54 0 0 1 .9 1.41 1.53 1.53 0 0 1-.83 1.37c.34.12.6.25.78.41a1.7 1.7 0 0 1 .58 1.28c0 .53-.2.97-.58 1.33-.38.36-.9.55-1.54.55h-1.78V25.3Zm.63.63v2.1h.37c.46 0 .8-.05 1-.13a1.08 1.08 0 0 0 .7-1c0-.3-.1-.54-.31-.71-.22-.17-.55-.26-1-.26h-.76Zm0 2.75v2.5h.8c.48 0 .83-.04 1.06-.13a1.2 1.2 0 0 0 .73-1.08c0-.3-.1-.55-.28-.77a1.46 1.46 0 0 0-.78-.44c-.22-.05-.6-.08-1.16-.08h-.37Zm7.66-3.55a3.37 3.37 0 0 1 3.47 3.43c0 .95-.33 1.77-1 2.43a3.3 3.3 0 0 1-2.42 1c-.96 0-1.78-.33-2.44-1a3.5 3.5 0 0 1 .7-5.4c.51-.3 1.08-.46 1.69-.46Zm.03.64c-.48 0-.94.12-1.37.38a2.72 2.72 0 0 0-1.38 2.44c0 .77.27 1.43.8 1.96.54.54 1.2.8 1.95.8a2.77 2.77 0 0 0 2.4-1.37c.25-.43.37-.9.37-1.42a2.7 2.7 0 0 0-1.38-2.41c-.44-.26-.9-.38-1.4-.38Zm4.75-.47h3.73v.63H74.9V28h3.04v.64H74.9v2.57h3.04v.64h-3.7V25.3Zm7.36 0h4.62v6.53h-.65v-5.92h-3.32v5.92h-.65V25.3Zm6.2 0h1.3c.74 0 1.24.03 1.5.1.38.09.68.27.92.56.23.28.35.64.35 1.08 0 .43-.11.79-.35 1.07a1.7 1.7 0 0 1-.95.57c-.3.07-.84.1-1.65.1h-.47v3.05h-.65V25.3Zm.65.63v2.22l1.1.02c.45 0 .78-.05.98-.13a1 1 0 0 0 .5-.4c.11-.17.17-.38.17-.6 0-.22-.06-.42-.18-.6a.98.98 0 0 0-.47-.4 2.8 2.8 0 0 0-.95-.1h-1.15Zm7.82-.8a3.37 3.37 0 0 1 3.47 3.43c0 .95-.33 1.77-1 2.43a3.3 3.3 0 0 1-2.42 1c-.96 0-1.78-.33-2.44-1a3.5 3.5 0 0 1 .7-5.4c.52-.3 1.08-.46 1.69-.46Zm.03.64c-.48 0-.94.12-1.37.38a2.72 2.72 0 0 0-1.37 2.44c0 .77.26 1.43.8 1.96.54.54 1.18.8 1.94.8A2.77 2.77 0 0 0 98.7 30c.25-.43.37-.9.37-1.42a2.7 2.7 0 0 0-1.38-2.41c-.44-.26-.9-.38-1.4-.38Zm10.81.73-.51.4a2.8 2.8 0 0 0-2.33-1.13 2.88 2.88 0 0 0-2.47 1.38c-.24.42-.36.9-.36 1.43 0 .8.27 1.46.81 2 .55.52 1.23.8 2.06.8a2.9 2.9 0 0 0 2.29-1.08l.51.39c-.32.41-.73.73-1.21.96a3.8 3.8 0 0 1-1.63.34 3.38 3.38 0 0 1-2.7-1.14 3.45 3.45 0 0 1-.82-2.33c0-.95.33-1.76 1-2.4.67-.66 1.5-.99 2.51-.99.6 0 1.16.12 1.65.36s.89.58 1.2 1.01Zm.66-.57v-.63h3.57v.63h-1.45v5.9h-.67v-5.9h-1.45Zm4.5-.63h1.3c.75 0 1.25.03 1.51.1a1.62 1.62 0 0 1 1.27 1.64c0 .43-.12.79-.35 1.07a1.7 1.7 0 0 1-.95.57c-.3.07-.85.1-1.65.1h-.47v3.05h-.65V25.3Zm.66.63v2.22l1.1.02c.45 0 .78-.05.98-.13a1 1 0 0 0 .5-.4c.1-.17.17-.38.17-.6 0-.22-.06-.42-.18-.6a.98.98 0 0 0-.47-.4c-.2-.07-.5-.1-.95-.1h-1.15Zm7.38-.63 3.04 6.53h-.7l-1.02-2.15h-2.82l-1.01 2.15h-.73l3.08-6.53h.16Zm-.08 1.37-1.12 2.37h2.23l-1.11-2.37Zm4.11-1.37h.65v2.73h3.32v-2.73h.66v6.53h-.66v-3.16H125v3.16h-.65V25.3Zm12.27 1.2-.51.4a2.8 2.8 0 0 0-2.33-1.13 2.88 2.88 0 0 0-2.47 1.38c-.24.42-.37.9-.37 1.43 0 .8.28 1.46.82 2 .54.52 1.23.8 2.06.8a2.9 2.9 0 0 0 2.29-1.08l.5.39c-.32.41-.72.73-1.2.96a3.8 3.8 0 0 1-1.63.34 3.38 3.38 0 0 1-2.7-1.14 3.44 3.44 0 0 1-.82-2.33c0-.95.33-1.76 1-2.4.67-.66 1.5-.99 2.5-.99.62 0 1.16.12 1.66.36.49.24.89.58 1.2 1.01Zm.66-.57v-.63h3.56v.63h-1.45v5.9h-.66v-5.9h-1.45Zm4.52-.63h1.29c.51 0 .91.06 1.19.18a1.54 1.54 0 0 1 .9 1.41 1.53 1.53 0 0 1-.83 1.37c.33.12.6.25.78.41a1.7 1.7 0 0 1 .58 1.28c0 .53-.2.97-.58 1.33-.38.36-.9.55-1.54.55h-1.79V25.3Zm.64.63v2.1h.37c.45 0 .79-.05 1-.13a1.08 1.08 0 0 0 .7-1c0-.3-.1-.54-.32-.71-.2-.17-.54-.26-1-.26h-.75Zm0 2.75v2.5h.8c.48 0 .83-.04 1.05-.13a1.2 1.2 0 0 0 .74-1.08c0-.3-.1-.55-.28-.77a1.46 1.46 0 0 0-.78-.44c-.22-.05-.61-.08-1.16-.08h-.37Zm7.66-3.55a3.37 3.37 0 0 1 3.47 3.43c0 .95-.34 1.77-1 2.43a3.3 3.3 0 0 1-2.42 1c-.97 0-1.78-.33-2.44-1a3.5 3.5 0 0 1 .7-5.4c.51-.3 1.08-.46 1.69-.46Zm.02.64c-.48 0-.93.12-1.37.38a2.73 2.73 0 0 0-1.37 2.44c0 .77.27 1.43.8 1.96.54.54 1.19.8 1.94.8a2.77 2.77 0 0 0 2.41-1.37c.24-.43.36-.9.36-1.42a2.7 2.7 0 0 0-1.38-2.41c-.43-.26-.9-.38-1.39-.38Zm11.03 3.02v3.04h-.65V28.8l-.2-.18-2.66 3.22h-.86l3.1-3.62-2.86-2.91h.88l2.6 2.76V25.3h.65v2.76l2.62-2.76h.87l-2.86 2.9 3.1 3.63h-.86l-2.67-3.22-.2.18Zm9.84 3.04h-.68v-5.02l-4.3 5.02h-.14V25.3h.65v5.09l4.32-5.1h.15v6.54Zm1.71-5.9c.46-.53 1.02-.8 1.7-.8.53 0 .98.16 1.32.47.35.3.53.7.53 1.2 0 .69-.33 1.19-.98 1.49.86.27 1.28.84 1.28 1.73 0 .59-.19 1.07-.57 1.43-.39.36-.91.54-1.58.54-.47 0-.87-.1-1.22-.3-.34-.19-.67-.52-.97-1.01l.5-.3c.3.45.59.73.85.86.27.12.54.19.82.19.42 0 .77-.12 1.06-.36.29-.24.44-.6.44-1.06 0-.25-.06-.46-.15-.64-.1-.18-.24-.33-.42-.44a1.51 1.51 0 0 0-.52-.22 5.14 5.14 0 0 0-.8-.04h-.11v-.57h.22c.97 0 1.45-.4 1.45-1.18 0-.36-.11-.65-.33-.87-.22-.21-.5-.32-.84-.32-.44 0-.85.2-1.23.6l-.45-.4Zm5.12-.63h.66v2.73h3.31v-2.73h.66v6.53h-.66v-3.16h-3.31v3.16h-.66V25.3Zm11.34 6.53h-.68v-5.02l-4.3 5.02h-.14V25.3h.65v5.09l4.32-5.1h.15v6.54Z" fill="#ED2E38"/><path fill-rule="evenodd" clip-rule="evenodd" d="m11.86.29.06-.01v29.2l-.06-.02h-.04l-.04-.02-.14-.03h-.05l-.12-.03-.1-.03-.05-.01-.04-.01-.1-.02-.04-.02-.17-.04-.1-.03a16.3 16.3 0 0 1-.22-.06l-.05-.02h-.04l-.18-.06-.05-.02-.04-.01-.04-.02-.2-.06-.08-.03-.25-.09-.04-.01-.26-.1H9.4l-.01-.01-.28-.11-.02-.01-.02-.01a14.9 14.9 0 0 1 0-27.45h.02l.01-.01h.01l.28-.12h.02l.26-.1.04-.02.25-.1.07-.02.2-.06.05-.02.04-.01.05-.02.18-.05.04-.02.05-.01.22-.06.1-.03.17-.05h.04l.1-.03.04-.01.05-.01.1-.03.12-.02.05-.01.14-.03.04-.01.04-.01Zm6.2 10.3-2.61 3.38V9.07L15.42 0c3.18.13 6.1 1.25 8.45 3.07l-5.82 7.53ZM20 22.25l3.46 4.75a14.74 14.74 0 0 1-8.03 2.76v-9.7s.02 0 0 0v-4.1l2.51 3.46L20 22.24Z" fill="#3C324C"/><path fill-rule="evenodd" clip-rule="evenodd" d="m18 10.68-2.55 3.3V9.76c.94.07 1.81.4 2.55.9Zm2.24 3.87a5.35 5.35 0 0 1-.02 1.04l-.4-.5.42-.54Zm-2.34 4.81c-.72.48-1.55.78-2.46.84v-4.25l2.46 3.41ZM11.7 19a5.23 5.23 0 0 1 .11-8.12l.05.07v7.82l-.17.23Z" fill="#ED2E38"/><path fill-rule="evenodd" clip-rule="evenodd" d="m25.34 22.84-6.11-7.93 6.25-7.79a12.88 12.88 0 0 1 2.59 7.77c0 3-1.02 5.75-2.73 7.95ZM11.92 10.8v8.38a5.23 5.23 0 0 1 0-8.38Z" fill="#ED2E38"/></svg>